PathFileType	4	(X/Y/Z)	C:/Users/opensim2020/Desktop/walking_exp_matlab/subject03_walking11_straight_04.trc																																																																																																																																								
DataRate	CameraRate	NumFrames	NumMarkers	Units	OrigDataRate	OrigDataStartFrame	OrigNumFrames																																																																																																																																				
100	100	4	46	mm	100	3791	350																																																																																																																																				
Frame#	Time	LFHD			RFHD			LBHD			RBHD			C7			T10			CLAV			STRN			RBAK			LSHO			LUPA			LELB			LFRM			LWRA			LWRB			LFIN			RSHO			RUPA			RELB			RFRM			RWRA			RWRB			RFIN			LASI			RASI			LPSI			RPSI			LTHI			LKNE			LTIB			LANK			LHEE			LTOE			RTHI			RKNE			RTIB			RANK			RHEE			RTOE			*39			*40			*41			*42			*43			*44			*45		
		X1	Y1	Z1	X2	Y2	Z2	X3	Y3	Z3	X4	Y4	Z4	X5	Y5	Z5	X6	Y6	Z6	X7	Y7	Z7	X8	Y8	Z8	X9	Y9	Z9	X10	Y10	Z10	X11	Y11	Z11	X12	Y12	Z12	X13	Y13	Z13	X14	Y14	Z14	X15	Y15	Z15	X16	Y16	Z16	X17	Y17	Z17	X18	Y18	Z18	X19	Y19	Z19	X20	Y20	Z20	X21	Y21	Z21	X22	Y22	Z22	X23	Y23	Z23	X24	Y24	Z24	X25	Y25	Z25	X26	Y26	Z26	X27	Y27	Z27	X28	Y28	Z28	X29	Y29	Z29	X30	Y30	Z30	X31	Y31	Z31	X32	Y32	Z32	X33	Y33	Z33	X34	Y34	Z34	X35	Y35	Z35	X36	Y36	Z36	X37	Y37	Z37	X38	Y38	Z38	X39	Y39	Z39	X40	Y40	Z40	X41	Y41	Z41	X42	Y42	Z42	X43	Y43	Z43	X44	Y44	Z44	X45	Y45	Z45	X46	Y46	Z46
																																																																																																																																											
44	0.43	-816.35138	1605.89844	914.79504	-829.15485	1617.97485	1046.43982	-949.29779	1577.99438	907.54767	-956.32703	1588.70251	1037.96008	-1000.91968	1421.79065	968.5658	-1049.45801	1108.43237	972.31403	-884.01331	1337.78247	980.61444	-847.44812	1172.39661	977.86328	-1070.06958	1248.8396	1063.75061	-913.6167	1374.93982	822.55536	-886.23834	1183.98975	749.2301	-849.73523	1066.36646	738.35431	-794.43427	948.53656	742.94574	-752.96893	837.23138	775.32642	-767.72974	839.85175	720.88251	-733.19556	763.11487	731.11523	-939.26575	1366.23657	1135.50208	-951.08258	1145.48242	1212.61389	-936.50708	1033.91455	1227.52905	-911.08081	899.66248	1227.27417	-872.92047	808.2605	1190.57849	-905.36749	799.79047	1233.29761	-875.71069	731.78235	1222.89124	-883.6264	942.53571	859.20898	-887.10223	941.91815	1097.82813	-1046.70435	966.37012	908.97113	-1047.81677	968.22162	1057.30347	-946.31403	640.94977	827.84528	-946.90027	463.36957	869.53534	-1005.25598	275.8053	871.15723	-1027.74255	66.52838	915.80945	-1067.01575	31.31623	953.21234	-874.09875	30.32171	936.93536	-871.93628	652.49261	1151.63806	-800.19452	486.96649	1129.08508	-881.32587	312.68097	1133.83276	-967.79279	114.10801	1093.4762	-1019.38007	93.13849	1040.90552	-848.68451	41.53199	1080.21631	-893.14032	1682.57361	952.33759	NaN	NaN	NaN	NaN	NaN	NaN	NaN	NaN	NaN	NaN	NaN	NaN	NaN	NaN	NaN	NaN	NaN	NaN
45	0.44	-809.50952	1605.53918	915.51733	-822.69153	1617.31458	1047.08215	-942.24268	1577.56409	907.85413	-949.85284	1588.09363	1038.24548	-994.35492	1421.30835	968.34857	-1043.00549	1107.96558	971.91034	-877.50293	1337.28284	980.50739	-840.97095	1171.84912	977.59998	-1063.94958	1248.12964	1062.85852	-906.6814	1374.63318	822.45911	-878.34839	1184.23584	748.57782	-841.15149	1066.85046	737.57703	-783.80652	950.10773	742.60706	-739.58295	839.98993	775.79376	-755.08282	841.77032	721.52838	-718.62286	766.05878	732.32324	-933.44287	1365.32056	1135.38477	-946.1701	1144.53967	1212.24695	-932.0072	1032.89929	1227.21484	-907.29755	898.50079	1227.08215	-869.59442	806.91705	1190.60864	-902.16876	798.59125	1233.17969	-872.90881	730.40344	1222.81775	-876.98303	942.05499	858.90533	-880.70428	941.58002	1097.55432	-1040.22375	965.87219	908.66022	-1041.45239	967.62238	1056.93274	-941.15918	640.4715	828.07697	-943.84058	463.02371	869.46783	-1003.6272	275.84171	871.14288	-1027.60132	66.64897	915.84961	-1067.01147	31.44579	953.24744	-874.05206	30.31089	936.88763	-864.26379	652.65466	1151.74048	-791.4939	487.36826	1128.41614	-866.43921	310.11325	1132.91663	-944.14508	108.08354	1092.10852	-994.54211	84.99347	1039.2179	-821.72614	40.48214	1078.64136	NaN	NaN	NaN	NaN	NaN	NaN	NaN	NaN	NaN	NaN	NaN	NaN	NaN	NaN	NaN	NaN	NaN	NaN	NaN	NaN	NaN
46	0.45	-802.75659	1605.08765	916.10205	-816.17102	1616.57019	1047.771	-935.52527	1577.11755	908.13611	-943.323	1587.32983	1038.56726	-987.67822	1420.75806	968.14813	-1036.47192	1107.4115	971.55853	-871.10474	1336.81055	980.3631	-834.44781	1171.19897	977.33594	-1057.77466	1247.3446	1061.97498	-899.68256	1374.31714	822.43616	-870.71375	1184.38525	748.1076	-832.73297	1067.22009	736.88556	-773.38776	951.66089	742.45685	-726.78229	843.04059	776.42328	-742.71515	843.59357	722.39191	-704.28906	769.03241	733.73596	-927.55237	1364.37012	1135.28564	-941.20441	1143.54956	1211.8999	-927.41754	1031.88855	1226.77136	-903.47675	897.2713	1226.91248	-866.24591	805.4201	1190.57495	-898.99213	797.34766	1233.10315	-870.09808	728.91534	1222.86719	-870.42664	941.487	858.68518	-874.26007	941.10297	1097.32776	-1033.69348	965.30347	908.40594	-1035.01233	966.84509	1056.62524	-936.35901	640.07983	827.9989	-940.67334	462.64807	869.34216	-1002.03033	275.84827	871.1322	-1027.47217	66.77768	915.89832	-1067.18225	31.66188	953.20093	-874.1684	30.26209	936.87146	-856.62103	652.56909	1151.78552	-783.21704	487.50336	1127.86841	-851.67657	307.55786	1132.0166	-919.75018	102.0009	1090.51465	-969.20233	77.19941	1037.53516	-794.90204	39.73093	1077.40051	-879.44104	1681.85413	953.39386	NaN	NaN	NaN	NaN	NaN	NaN	NaN	NaN	NaN	NaN	NaN	NaN	NaN	NaN	NaN	NaN	NaN	NaN
47	0.46	-795.91162	1604.60217	916.80481	-809.63562	1615.74438	1048.4884	-928.80115	1576.63293	908.47247	-936.76123	1586.48425	1038.9447	-981.01117	1420.14978	968.00989	-1029.88062	1106.77234	971.34613	-864.47009	1336.03955	980.34442	-827.86346	1170.47717	977.18427	-1051.52393	1246.52881	1061.18396	-892.77161	1373.9082	822.47418	-862.98492	1184.40979	747.67566	-824.38727	1067.52832	736.34448	-763.17371	953.05585	742.43549	-714.1496	845.90546	777.26501	-730.43866	845.4093	723.37622	-690.22064	772.00629	735.38507	-921.57336	1363.38904	1135.24329	-936.0838	1142.48279	1211.50476	-922.71899	1030.79956	1226.47363	-899.61389	895.9953	1226.72278	-862.9035	803.76239	1190.80371	-895.74603	796.01575	1233.04053	-867.28156	727.37311	1222.90869	-863.97504	940.76752	858.56091	-867.78937	940.36688	1097.21985	-1027.13794	964.67523	908.19543	-1028.61499	965.97559	1056.4574	-931.53833	639.69275	828.10059	-937.48438	462.25351	869.36377	-1000.35718	275.89056	871.13971	-1027.32031	66.9332	915.87073	-1067.20068	31.89583	953.2901	-874.26526	30.47397	936.57336	-849.43561	652.18347	1151.82385	-775.28723	487.36819	1127.36987	-836.9837	304.99417	1131.36584	-895.56152	96.55943	1089.22424	-943.52936	69.78975	1036.01355	-767.90741	39.56416	1076.43823	-873.07007	1680.75647	954.33307	NaN	NaN	NaN	NaN	NaN	NaN	NaN	NaN	NaN	NaN	NaN	NaN	NaN	NaN	NaN	NaN	NaN	NaN
